<?xml version="1.0" encoding="UTF-8" standalone="no"?>
<svg width="575px" height="706px" viewBox="0 0 575 706" version="1.1" xmlns="http://www.w3.org/2000/svg" xmlns:xlink="http://www.w3.org/1999/xlink" xmlns:sketch="http://www.bohemiancoding.com/sketch/ns">
    <!-- Generator: Sketch 3.0.4 (8053) - http://www.bohemiancoding.com/sketch -->
    <title>Devices</title>
    <desc>Created with Sketch.</desc>
    <defs></defs>
    <g id="Welcome" stroke="none" stroke-width="1" fill="none" fill-rule="evenodd" sketch:type="MSPage">
        <g id="Devices" sketch:type="MSArtboardGroup" stroke="#979797" stroke-width="2">
            <g id="iPhone-+-iPad-+-Macbook-Pro-2" sketch:type="MSLayerGroup" transform="translate(80.000000, 80.000000)">
                <g id="iPhone" transform="translate(279.000000, 136.000000)" sketch:type="MSShapeGroup">
                    <path d="M69,136.64523 C69,140.708044 65.7098953,144 61.6531809,144 L7.34511172,144 C3.2883973,144 0,140.708044 0,136.64523 L0,7.35647901 C0,3.29366521 3.2883973,0 7.34511172,0 L61.6531809,0 C65.7098953,0 69,3.29366521 69,7.35647901 L69,136.64523 L69,136.64523 Z" id="Shape"></path>
                    <path d="M28.3601695,13.9919028 C28.3601695,14.7951249 28.9496137,15.4493927 29.6791577,15.4493927 L38.734388,15.4493927 C39.4656405,15.4493927 40.0550847,14.7951249 40.0550847,13.9919028 L40.0550847,13.9919028 C40.0550847,13.1867952 39.4656405,12.534413 38.734388,12.534413 L29.6791577,12.534413 C28.9496137,12.534413 28.3601695,13.1867952 28.3601695,13.9919028 L28.3601695,13.9919028 L28.3601695,13.9919028 Z" id="Shape"></path>
                    <ellipse id="Oval" cx="33.8345185" cy="6.91340905" rx="1.40775291" ry="1.41309011"></ellipse>
                    <rect id="Rectangle" x="4.09322034" y="20.9878543" width="60.2288136" height="102.024291"></rect>
                    <ellipse id="Oval" cx="34.2076271" cy="133.506073" rx="6.13983051" ry="6.12145749"></ellipse>
                    <path d="M35.9391318,135.546559 L32.477698,135.546559 C32.3028144,135.546559 32.1610169,135.398854 32.1610169,135.214637 L32.1610169,131.799168 C32.1610169,131.614952 32.3028144,131.465587 32.477698,131.465587 L35.9391318,131.465587 C36.1124398,131.465587 36.2542373,131.614952 36.2542373,131.799168 L36.2542373,135.214637 C36.2542373,135.398854 36.1124398,135.546559 35.9391318,135.546559 Z" id="Shape"></path>
                </g>
                <g id="iPad" transform="translate(41.000000, 0.000000)" sketch:type="MSShapeGroup">
                    <path d="M1.04431194e-13,10.2147511 C1.04431194e-13,4.57175329 4.54149165,0 10.1430321,0 L202.856968,0 C208.458508,0 213,4.57175329 213,10.2147511 L213,269.785249 C213,275.426397 208.458508,280 202.856968,280 L10.1430321,280 C4.54149165,280 0,275.426397 0,269.785249 L0,10.2147511 L1.04431194e-13,10.2147511 Z" id="Shape"></path>
                    <rect id="Rectangle" x="11.4252874" y="19.5918367" width="190.149425" height="227.755102"></rect>
                    <ellipse id="Oval" cx="106.387322" cy="9.68034033" rx="1.96470995" ry="1.97864658"></ellipse>
                    <ellipse id="Oval" cx="106.5" cy="263.673469" rx="8.56896552" ry="8.57142857"></ellipse>
                    <path d="M109.356322,266.065847 C109.356322,266.323792 109.158424,266.530612 108.916549,266.530612 L104.085649,266.530612 C103.841576,266.530612 103.643678,266.323792 103.643678,266.065847 L103.643678,261.283415 C103.643678,261.025471 103.841576,260.816327 104.085649,260.816327 L108.916549,260.816327 C109.158424,260.816327 109.356322,261.025471 109.356322,261.283415 L109.356322,266.065847 L109.356322,266.065847 Z" id="Shape"></path>
                </g>
                <g id="Macbook-Pro" transform="translate(0.000000, 303.000000)" sketch:type="MSShapeGroup">
                    <path d="M417,237.434132 C417,237.628903 416.842729,237.78607 416.652852,237.78607 L0.348106549,237.78607 C0.155353336,237.78607 0,237.628903 0,237.434132 L0,225.496216 C0,225.304338 0.156312307,225.144279 0.348106549,225.144279 L416.652852,225.144279 C416.842729,225.144279 417,225.304338 417,225.496216 L417,237.434132 L417,237.434132 Z" id="Shape"></path>
                    <path d="M380.896104,13.5089452 C380.896104,6.0481663 374.873028,0 367.447544,0 L51.3597028,0 C43.9321664,0 37.9090909,6.0481663 37.9090909,13.5089452 L37.9090909,225.144279 L380.895078,225.144279 L380.895078,13.5089452 L380.896104,13.5089452 Z" id="Shape"></path>
                    <rect id="Rectangle" x="51.7489177" y="13.2437811" width="315.307359" height="198.656716"></rect>
                    <path d="M0.300865801,237.78607 C1.50565735,240.221633 5.24599187,242 9.6824709,242 L407.317529,242 C411.752085,242 415.494343,240.22279 416.699134,237.78607 L0.300865801,237.78607 L0.300865801,237.78607 Z" id="Shape"></path>
                    <path d="M181.815363,225.144279 C181.76434,225.459366 181.722944,225.779503 181.722944,226.10772 C181.722944,229.231329 184.138367,231.766169 187.116972,231.766169 L231.690148,231.766169 C234.669716,231.766169 237.082251,229.231329 237.082251,226.10772 C237.082251,225.779503 237.04278,225.459366 236.989832,225.144279 L181.815363,225.144279 L181.815363,225.144279 Z" id="Shape"></path>
                </g>
            </g>
        </g>
    </g>
</svg>