<?xml version="1.0" encoding="UTF-8" standalone="no"?>
<svg width="50px" height="49px" viewBox="0 0 50 49" version="1.1" xmlns="http://www.w3.org/2000/svg" xmlns:xlink="http://www.w3.org/1999/xlink" xmlns:sketch="http://www.bohemiancoding.com/sketch/ns">
    <!-- Generator: Sketch 3.0.4 (8053) - http://www.bohemiancoding.com/sketch -->
    <title>Imported Layers 3</title>
    <desc>Created with Sketch.</desc>
    <defs></defs>
    <g id="Welcome" stroke="none" stroke-width="1" fill="none" fill-rule="evenodd" sketch:type="MSPage">
        <g id="Icon" sketch:type="MSArtboardGroup" fill="#FFFFFF">
            <g id="Imported-Layers-3" sketch:type="MSLayerGroup" transform="translate(1.000000, 0.000000)">
                <path d="M41.0997828,36.5425156 L41.0043116,46.8520938 C40.9946436,47.9842344 39.9807144,48.8456719 38.856812,48.6796406 L1.1867443,43.1187969 C0.262243902,42.9816406 -0.420557042,42.1875781 -0.412097561,41.2563594 L-0.38188513,38.028375 C-0.372217152,36.9985 0.473730921,36.17075 1.50820456,36.180375 L27.20569,36.4161875 C28.0298851,36.4234063 28.761026,35.8940313 29.0099764,35.1132031 L34.1098348,19.0599063 C34.3587852,18.277875 35.0911345,17.7485 35.9141212,17.7569219 L39.3994272,17.7882031 C40.4339009,17.7978281 41.265347,18.6412188 41.255679,19.6710938 L41.0997828,36.5425156" id="Fill-10" sketch:type="MSShapeGroup"></path>
                <path d="M46.7990559,12.6111563 L21.0532305,12.3753438 C20.2399119,12.368125 19.5196475,12.8926875 19.2779481,13.6650938 L14.1478773,30.1442969 C13.9073863,30.9179063 13.1859135,31.4412656 12.3738033,31.4340469 L8.83894886,31.4015625 C7.82260268,31.3931406 7.00686703,30.5653906 7.01532651,29.5535625 L7.27031943,1.89251563 C7.28119591,0.780828125 8.27699764,-0.066171875 9.38156412,0.097453125 L47.1168906,5.67273438 C48.0244721,5.80748438 48.695188,6.58710938 48.6867286,7.50148438 L48.6565161,10.7968438 C48.6468482,11.8086719 47.815402,12.6207813 46.7990559,12.6111563" id="Fill-11" sketch:type="MSShapeGroup"></path>
            </g>
        </g>
    </g>
</svg>