<?xml version="1.0" encoding="utf-8"?>
<!-- Generator: Adobe Illustrator 18.1.0, SVG Export Plug-In . SVG Version: 6.00 Build 0)  -->
<!DOCTYPE svg PUBLIC "-//W3C//DTD SVG 1.1//EN" "http://www.w3.org/Graphics/SVG/1.1/DTD/svg11.dtd">
<svg version="1.1" xmlns="http://www.w3.org/2000/svg" xmlns:xlink="http://www.w3.org/1999/xlink" x="0px" y="0px"
	 viewBox="0 0 403.7 122" enable-background="new 0 0 403.7 122" xml:space="preserve">
<g id="Dark_BG">
</g>
<g id="Light_BG">
	<g>
		<g>
			<path fill="#656565" d="M139.7,61.9c-3.8-1.1-7.2-2.3-7.2-5.1c0-2.1,2.3-3.1,5-3.1c3,0,5,1.1,5,2.8v1.9h7.3v-4.4
				c0-5.2-7.4-7.1-12.4-7.1c-6.2,0-13.5,2.6-13.5,9.8c0,6.5,5.8,8.9,10.8,10.6c4.6,1.7,7.8,2.4,7.8,5.3c0,2.3-2.4,3.5-5.8,3.5
				c-3.6,0-6.7-1.2-6.7-3.6v-2h-7.3v4c0,5.6,7.7,8.3,13.9,8.3c7.9,0,14.4-3.5,14.4-10.4C151.1,65.8,145,63.6,139.7,61.9z"/>
			<rect x="196.2" y="34.4" fill="#656565" width="8.6" height="7.6"/>
			<path fill="#656565" d="M241.4,68.7V54.2h7.8v-6.4h-7.8v-9.3h-8.3v9.3h-3.8h-1.7h-6v-1.7c0-5,3.8-5.4,5.8-5.4
				c1.7,0,2.6,0.2,2.6,0.2v-6.9c0,0-1.5-0.3-3.5-0.3c-4.6,0-13.4,1.4-13.4,12.5v1.5h-5.3v6.4h5.3v21.5h-3.4h-1.6h-3.3V47.8H191v6.4
				h5.3v21.5h-2.8h-2.2h-2.8V60.1c0-9.1-4.4-13-12-13c-5.9,0-10.1,3.6-11.8,6.9h-0.1c0,0,0.2-1.2,0.2-2.9V34.4h-13.8v6.4h5.3v34.9
				h-5v6.4h18.4v-6.4h-4.9v-9.3c0-6.3,3.8-11.6,9.8-11.6c4.3,0,5.4,2.8,5.4,7v20.3h11.4h2.2h14.6h1.6h17.7v-6.4h-5.8V54.2h6h1.7h3.5
				v15.3c0,11.5,9.5,12.9,14.3,12.9c1.5,0,2.6-0.2,2.6-0.2v-7c0,0-0.6,0.1-1.5,0.1C245.8,75.3,241.4,74.5,241.4,68.7z"/>
			<path fill="#656565" d="M300.1,47.8h-11.9h-1.9h-6.6c-2.7,0-3.9,1.4-3.9,3.2c0,0.7,0.1,1.1,0.1,1.1h-0.1
				c-1.9-3.6-6.5-5.2-10.6-5.2c-9.9,0-15.2,7.7-15.2,17.1c0,9.4,5.5,17.3,15.4,17.3c4.6,0,7.5-1.7,9.5-4.8h0.1c0,0-0.1,1-0.1,1.8
				v2.1c0,6.3-4.4,8.6-9.7,8.6c-5.2,0-9.5-2.3-9.5-2.3l-2.6,6.3c3.4,1.7,7.9,3,12.2,3c8.9,0,18.1-4.4,18.1-16.2V55.6
				c0-0.9,0.6-1.3,1.5-1.3h1.3h1.9h3.4v21.5h-5v6.4H305v-6.4h-4.9V47.8z M267.2,74.2c-5.5,0-8.6-4.4-8.6-10.4c0-5.8,2.9-9.5,8.1-9.5
				c4.6,0,8.5,2.1,8.5,9.9C275.1,71.9,271.2,74.2,267.2,74.2z"/>
			<rect x="291.5" y="34.4" fill="#656565" width="8.6" height="7.6"/>
			<path fill="#656565" d="M334.9,47.8c-2.7,0-3.9,1.4-3.9,3.2c0,0.7,0.1,1.1,0.1,1.1H331c-1.9-3.6-6.5-5.2-10.6-5.2
				c-9.9,0-15.2,7.7-15.2,17.1c0,9.4,5.5,17.3,15.4,17.3c4.6,0,7.5-1.7,9.5-4.8h0.1c0,0-0.1,1-0.1,1.8v2.1c0,6.3-4.4,8.6-9.7,8.6
				c-5.2,0-9.5-2.3-9.5-2.3l-2.6,6.3c3.4,1.7,7.9,3,12.2,3c8.9,0,18.1-4.4,18.1-16.2V55.6c0-0.9,0.6-1.3,1.5-1.3h3.3v-6.4H334.9z
				 M322.4,74.2c-5.5,0-8.6-4.4-8.6-10.4c0-5.8,2.9-9.5,8.1-9.5c4.6,0,8.5,2.1,8.5,9.9C330.3,71.9,326.4,74.2,322.4,74.2z"/>
		</g>
		<g>
			<path fill="#B5CC59" d="M60.3,34.4v48h48v-48H60.3z M98.3,68.4v10.4L64,74v-5.6h24l4.8-15.6h5.6V68.4z M104.4,48.4h-24l-4.8,15.9
				H70V48.4V38l34.4,4.8V48.4z"/>
		</g>
	</g>
</g>
</svg>
