<?xml version="1.0" encoding="UTF-8" standalone="no"?>
<svg width="1440px" height="522px" viewBox="0 0 1440 522" version="1.1" xmlns="http://www.w3.org/2000/svg" xmlns:xlink="http://www.w3.org/1999/xlink" xmlns:sketch="http://www.bohemiancoding.com/sketch/ns">
    <!-- Generator: Sketch 3.3.1 (12002) - http://www.bohemiancoding.com/sketch -->
    <title>SVG-OnDark</title>
    <desc>Created with Sketch.</desc>
    <defs></defs>
    <g id="Logo" stroke="none" stroke-width="1" fill="none" fill-rule="evenodd" sketch:type="MSPage">
        <g id="SVG-OnDark" sketch:type="MSArtboardGroup">
            <g id="On-Dark" sketch:type="MSLayerGroup" transform="translate(275.500000, 159.500000)">
                <path d="M134.698407,124.946205 L134.23393,158.52071 C134.23393,162.251211 130.982589,165.049087 127.266771,164.582774 L5.34148854,146.163427 C2.09014769,145.930271 0,143.365552 0,140.101364 L0,129.842487 C0.232238632,126.578299 2.78686359,123.780423 6.03820444,123.780423 L89.1796348,124.479892 C91.9664984,124.479892 94.2888847,122.847798 95.2178393,120.283079 L111.474544,68.0560697 C112.403498,65.4913505 114.725884,63.8592565 117.280509,63.8592565 L128.660202,63.8592565 C132.143782,64.0924128 134.698407,66.657132 134.698407,69.9213201 L134.698407,124.946205" id="Fill-1" fill="#C6E979" sketch:type="MSShapeGroup"></path>
                <path d="M153.382906,46.9276827 L70.3845758,46.2295849 C67.6025089,46.2295849 65.2841198,47.8584799 64.3567641,50.4181721 L48.1280404,105.567904 C47.2006848,108.127596 44.8822957,109.756491 42.3320677,109.756491 L30.9719611,109.756491 C27.4943774,109.523792 24.9441494,106.9641 24.9441494,103.70631 L25.6396661,11.0919919 C25.6396661,7.36880319 28.8854109,4.5764117 32.5948334,5.04181028 L154.773939,23.6577536 C157.556006,24.1231522 159.642556,26.6828444 159.642556,29.7079352 L159.642556,40.6448019 C159.410717,44.1352912 156.62865,46.9276827 153.382906,46.9276827" id="Fill-2" fill="#C6E979" sketch:type="MSShapeGroup"></path>
                <path d="M187.580004,149.696767 C187.580004,149.696767 203.848191,166.916737 232.898526,166.916737 C260.554445,166.916737 277.519841,151.325683 277.519841,131.77869 C277.519841,94.3136206 220.813587,96.4079413 220.813587,79.8860783 C220.813587,72.6723071 228.250473,69.414475 235.687358,69.6471773 C253.582365,69.6471773 264.272888,79.653376 264.272888,79.653376 L274.963411,58.2447648 C275.195814,58.2447648 262.413667,44.9807339 236.152164,44.9807339 C210.820272,44.9807339 191.530849,57.5466579 191.530849,79.1879714 C191.298446,116.653041 248.0047,114.326018 248.237103,131.77869 C248.0047,138.527057 241.03262,142.250294 232.666123,142.017591 C213.841506,142.017591 201.059359,129.218965 201.059359,129.451667 L187.580004,149.696767 L187.580004,149.696767 Z M289.60478,164.124309 L318.422712,164.124309 L318.422712,110.835484 C318.422712,105.250629 318.887518,100.131178 320.281934,95.4771321 C324.697585,81.2822921 336.550121,71.2760934 351.888698,71.0433911 C366.76247,71.2760934 370.24851,80.8168875 370.24851,95.0117275 L370.24851,163.891607 L399.066442,163.891607 L399.066442,88.7287655 C399.066442,58.0120625 384.425074,44.5153293 358.628376,44.5153293 C338.17694,44.5153293 324.000377,56.3831464 318.19031,67.3201543 L317.725504,67.3201543 C317.725504,67.5528566 318.19031,63.3642153 318.19031,57.7793602 L318.19031,1.93080918 L289.372377,1.93080918 L289.372377,164.124309 L289.60478,164.124309 L289.60478,164.124309 Z M416.031838,27.760764 L444.84977,27.760764 L444.84977,1.93080918 L416.031838,1.93080918 L416.031838,27.760764 Z M518.753823,72.6723071 L501.323622,72.6723071 L501.323622,164.124309 L472.505689,164.124309 L472.505689,72.6723071 L457.86432,72.6723071 L457.86432,49.4020775 L472.273287,49.4020775 L472.273287,44.0499247 C472.273287,6.11945051 503.415246,1 519.915836,1 C525.725903,1 529.676749,1.69810689 529.909151,1.69810689 L529.909151,26.3645502 C529.676749,26.131848 527.120319,25.6664434 523.866682,25.6664434 C515.500185,25.6664434 501.556024,27.760764 501.323622,44.7480316 L501.323622,49.4020775 L518.753823,49.4020775 L518.753823,72.6723071 L518.753823,72.6723071 Z M529.181981,49.4020775 L544.055752,49.4020775 L544.055752,15.8929469 L572.641282,15.8929469 L572.641282,49.4020775 L592.511711,49.4020775 L592.511711,72.6723071 L572.641282,72.6723071 L572.641282,117.58385 C572.408879,136.898141 587.515053,139.690568 595.416744,139.690568 C598.670382,139.690568 600.762006,139.225164 600.762006,139.225164 L600.762006,164.357012 C600.762006,164.357012 597.275966,165.055119 591.930704,165.055119 C575.430114,165.055119 543.358544,160.16837 543.126141,121.307087 L543.126141,72.4396048 L529.181981,72.4396048 L529.181981,49.4020775 L529.181981,49.4020775 Z M416.031838,164.124309 L444.84977,164.124309 L444.84977,47.5404592 L416.031838,47.5404592 L416.031838,164.124309 Z M622.375455,179.948066 L613.544154,202.520188 C624.699482,208.337746 640.270462,212.526387 654.679428,212.526387 C685.356582,212.526387 716.266138,197.400738 716.266138,157.143241 L716.266138,47.7731615 L689.307427,47.7731615 L689.307427,56.848551 C689.075025,58.4774671 689.307427,59.8736809 689.307427,59.8736809 L688.610219,59.8736809 C688.842622,59.8736809 679.546515,44.9807339 654.447025,44.9807339 C620.748637,44.9807339 602.621228,71.0433911 602.621228,102.923606 C602.621228,135.036522 621.678247,162.029989 654.679428,162.029989 C670.48281,162.029989 680.476125,156.677836 687.448206,146.438935 L687.913011,146.438935 C687.913011,146.438935 687.448206,149.696767 687.448206,152.489195 L687.448206,159.237561 C687.448206,179.948066 672.342032,187.627241 654.214623,187.394539 C636.784422,187.627241 622.143053,179.948066 622.375455,179.948066 L622.375455,179.948066 Z M660.9543,137.596248 C642.129683,137.596248 631.671563,122.470598 631.671563,102.225499 C631.671563,82.6785058 641.432475,69.8798796 659.095079,69.8798796 C674.898461,69.8798796 687.913011,76.8609485 687.913011,103.38901 C687.913011,129.451667 674.898461,137.596248 660.9543,137.596248 L660.9543,137.596248 Z M733.231534,27.760764 L762.049466,27.760764 L762.049466,1.93080918 L733.231534,1.93080918 L733.231534,27.760764 Z M733.231534,164.124309 L762.049466,164.124309 L762.049466,47.5404592 L733.231534,47.5404592 L733.231534,164.124309 Z M794.121036,179.948066 L785.289734,202.520188 C796.445063,208.337746 812.016042,212.526387 826.425009,212.526387 C857.102162,212.526387 888.011719,197.400738 888.011719,157.143241 L888.011719,47.7731615 L861.053008,47.7731615 L861.053008,56.848551 C860.820605,58.4774671 861.053008,59.8736809 861.053008,59.8736809 L860.3558,59.8736809 C860.588202,59.8736809 851.292095,44.9807339 826.192606,44.9807339 C792.494217,44.9807339 774.366808,71.0433911 774.366808,102.923606 C774.366808,135.036522 793.423828,162.029989 826.425009,162.029989 C842.228391,162.029989 852.221706,156.677836 859.193786,146.438935 L859.658592,146.438935 C859.658592,146.438935 859.193786,149.696767 859.193786,152.489195 L859.193786,159.237561 C859.193786,179.948066 844.087612,187.627241 825.960203,187.394539 C808.530002,187.627241 793.888633,179.948066 794.121036,179.948066 L794.121036,179.948066 Z M832.932284,137.596248 C814.107666,137.596248 803.649546,122.470598 803.649546,102.225499 C803.649546,82.6785058 813.410458,69.8798796 831.073062,69.8798796 C846.876444,69.8798796 859.890994,76.8609485 859.890994,103.38901 C859.890994,129.451667 846.876444,137.596248 832.932284,137.596248 L832.932284,137.596248 Z" id="Fill-3" fill="#FFFFFF" sketch:type="MSShapeGroup"></path>
                <text id="TM-Copy" sketch:type="MSTextLayer" font-family="Helvetica" font-size="24" font-weight="normal" fill="#FFFFFF">
                    <tspan x="900.5" y="64.5">TM</tspan>
                </text>
            </g>
        </g>
    </g>
</svg>